<?xml version="1.0" standalone="no"?><!DOCTYPE svg PUBLIC "-//W3C//DTD SVG 1.1//EN" "http://www.w3.org/Graphics/SVG/1.1/DTD/svg11.dtd"><svg t="1728790353984" class="icon" viewBox="0 0 1024 1024" version="1.1" xmlns="http://www.w3.org/2000/svg" p-id="5581" width="28" height="28" xmlns:xlink="http://www.w3.org/1999/xlink"><path d="M482.8 727.284a62.75 62.75 0 0 1 58.4 0l156.592 82.324-29.908-174.366a62.75 62.75 0 0 1 18.048-55.542l126.684-123.488-175.074-25.44a62.75 62.75 0 0 1-47.246-34.326L512 237.8l-78.296 158.644a62.75 62.75 0 0 1-47.246 34.326l-175.074 25.44 126.684 123.488a62.75 62.75 0 0 1 18.048 55.54l-29.908 174.368 156.592-82.324z m29.2 61.34l-192.606 101.26c-36.956 19.43-80.148-11.95-73.09-53.1l36.786-214.472-155.822-151.888c-29.9-29.144-13.4-79.918 27.916-85.92l215.34-31.292 96.304-195.132c18.48-37.44 71.866-37.44 90.344 0l96.302 195.132 215.34 31.29c41.32 6.004 57.816 56.78 27.92 85.92l-155.824 151.89 36.786 214.47c7.058 41.152-36.134 72.532-73.09 53.104L512 788.626z" fill="#2c2c2c" p-id="5582"></path></svg>