<svg width="563" height="563" viewBox="0 0 563 563" fill="none" xmlns="http://www.w3.org/2000/svg">
    <path
        d="M355.5 330C355.66 333.18 357.06 335.18 360.23 337.1C405.17 364.44 454.611 397.46 463.101 402.68C469.801 406.79 476.501 410.89 483.231 414.96C484.421 415.68 485.191 416.35 485.281 417.74C486.291 433.13 479.991 460.94 479.881 461.24C399.891 412.4 389.88 402.88 309.89 354.04C309.04 341.12 356.36 342.93 355.5 330Z"
        fill="#4082C1" />

    <path d="M479.88 412.92L529.2 389.22L388.5 311L343.3 329.49L479.88 412.92Z"
        fill="#D55415" />
    <path
        d="M139.761 196.07C151.041 189.63 162.341 183.23 173.591 176.74C226.091 146.46 278.581 116.16 331.081 85.8701C332.011 85.3301 332.941 84.7701 334.291 83.9801C329.051 80.9501 324.131 78.0801 319.201 75.2401C308.751 69.2201 298.281 63.2201 287.851 57.1601C286.561 56.4101 285.611 55.9901 284.081 56.8801C236.321 84.5301 188.531 112.11 140.751 139.71C140.321 139.96 139.941 140.3 139.541 140.59C139.581 157.68 139.611 174.77 139.661 191.86C139.651 193.25 139.721 194.66 139.761 196.07Z"
        fill="#CA531A" />
    <path
        d="M478.801 143.78C478.751 142.93 478.641 142.09 477.781 141.44C476.981 141.13 476.161 140.84 475.381 140.5L450.101 152.55C395.591 121.15 341.091 89.7399 286.571 58.3399C285.731 57.8499 285.001 57.0299 283.891 57.1399C282.741 58.3899 282.221 56.5999 282.221 58.0999C282.201 73.6599 282.871 97.8299 282.881 113.38C282.881 114.9 342.101 146.27 370.381 162.59C390.041 173.94 409.701 185.31 429.361 196.67L429.581 196.54C429.521 241.46 429.451 286.38 429.391 331.3C429.391 332.29 429.521 333.29 429.581 334.28C433.431 335.93 437.281 337.57 441.121 339.24C453.341 344.54 482.201 344.57 482.201 343.01C482.231 274.85 478.851 214.22 478.851 146.06C478.831 145.31 478.851 144.55 478.801 143.78Z"
        fill="#EB5F1B" />
    <path
        d="M283.411 358.03C284.331 357.42 285.221 356.75 286.181 356.2C333.211 329.21 380.251 302.24 427.241 275.19C429.261 274.03 430.661 274.02 432.671 275.21C446.891 283.6 461.201 291.85 475.491 300.14C476.341 300.63 477.171 301.14 478.381 301.86C477.571 302.33 477.081 302.6 476.601 302.88C412.931 339.42 349.261 375.96 285.591 412.49C284.981 412.84 284.351 413.17 283.731 413.51C283.031 408.44 283.481 403.35 283.451 398.27C283.371 384.86 283.411 371.44 283.411 358.03Z"
        fill="#E45E1D" />
    <path
        d="M90.1609 225.53C82.0909 220.3 73.5809 215.82 65.3009 210.94C57.6909 206.46 50.0709 202.01 42.4509 197.54C41.8809 196.71 42.1609 195.78 42.1609 194.9C42.1409 177.94 42.1409 160.98 42.1509 144.03C42.1509 140.54 42.6709 140.23 45.7409 142.01C63.7509 152.39 81.7309 162.83 99.7609 173.18C135.201 193.53 170.541 214.06 205.961 234.44C231.761 249.29 257.561 264.14 283.291 279.12C284.621 279.9 285.871 280.74 286.221 282.4C286.531 284.01 286.451 285.63 286.451 287.24C286.451 377.06 286.461 466.89 286.431 556.71C286.431 558.68 286.881 560.78 285.471 562.55C279.021 559.72 273.181 555.8 267.111 552.3C229.251 530.48 191.451 508.55 153.631 486.66C119.561 466.91 85.4709 447.18 51.3909 427.44C48.4409 425.73 44.3409 424.61 42.9309 422.03C41.4309 419.29 42.4609 415.15 42.4509 411.62C42.3709 366.18 42.3109 320.74 42.2309 275.29C42.2209 269.13 42.0809 262.97 42.0409 256.82C42.0309 255.63 41.8009 254.38 42.5509 253.29C43.6909 253.32 44.6909 253.74 45.6809 254.31C77.0809 272.41 108.411 290.63 139.821 308.72C171.401 326.91 202.911 345.24 234.521 363.38C234.871 363.58 235.221 363.78 235.711 363.79C236.611 363.16 236.211 362.17 236.221 361.34C236.251 345.49 236.201 329.63 236.281 313.78C236.291 311.36 235.451 309.97 233.331 308.74C196.251 287.35 159.141 266.01 122.111 244.53C112.331 238.86 102.531 233.22 92.7209 227.59C91.7509 227.04 90.7009 226.59 90.1609 225.53Z"
        fill="#1D82C6" />
    <path
        d="M339.861 307.76C336.631 309.56 335.441 311.79 335.441 315.5C335.541 368.1 334.591 498.83 334.551 508.8C334.521 516.66 334.521 524.52 334.561 532.38C334.571 533.77 334.361 534.78 332.961 535.58C317.491 544.46 302.061 553.42 286.611 562.34C286.301 562.52 285.861 562.47 285.481 562.53C285.481 468.81 285.481 375.09 285.481 281.36C298.471 273.91 311.471 266.47 324.461 258.99"
        fill="#1271B3" />
    <path
        d="M479.931 338.1C479.961 337.26 480.021 336.43 480.021 335.59C480.051 277.36 480.071 219.12 480.091 160.89C480.091 160.18 480.001 159.48 479.961 158.77C485.901 157.32 491.041 154.93 496.551 152.97C506.361 149.48 516.011 145.81 525.741 142.24C526.771 141.86 527.941 141.64 529.041 141.35C529.071 142.06 529.121 142.76 529.121 143.47C529.101 201.54 529.071 259.6 529.121 317.67C529.121 319.54 528.421 320.61 525.701 321.59C511.081 326.84 496.621 332.26 482.091 337.62C481.431 337.86 480.831 338.26 479.931 338.1Z"
        fill="#1171B3" />
    <path
        d="M90.1605 225.53C98.2205 229.44 105.771 234.26 113.511 238.72C153.541 261.77 193.531 284.91 233.561 307.96C235.871 309.29 236.931 310.67 236.901 313.54C236.731 330.71 236.821 347.87 236.821 365.05C235.761 365.51 235.101 364.68 234.371 364.27C171.101 327.72 107.831 291.16 44.5705 254.6C43.8805 254.2 43.2205 253.74 42.5405 253.3C57.6705 244.54 72.8005 235.78 87.9205 227.02C88.7005 226.57 89.4105 226.03 90.1605 225.53Z"
        fill="#EB5F1B" />
    <path
        d="M139.421 366.19C151.811 373.29 164.221 380.36 176.591 387.5C195.681 398.52 214.721 409.63 233.861 420.58C236.051 421.83 236.951 423.09 236.941 425.68C236.811 443.05 236.871 460.42 236.871 477.8C235.921 478.32 235.351 477.55 234.721 477.18C187.441 449.86 140.171 422.52 92.9009 395.17C92.4009 394.88 91.991 394.45 91.531 394.08C91.511 392.36 93.081 392.11 94.101 391.53C106.721 384.31 119.231 376.91 131.891 369.77C134.311 368.41 136.441 366.38 139.421 366.19Z"
        fill="#EB5F1B" />
    <path
        d="M139.421 366.19C127.951 372.84 116.471 379.48 105.011 386.15C100.501 388.77 96.0308 391.44 91.5408 394.09C90.8808 393.54 91.1308 392.79 91.1308 392.12C91.0908 374.68 91.0608 357.24 91.0308 339.8C91.0308 339.41 91.0808 339.02 91.1408 338.14C94.7208 340.19 98.0808 342.1 101.421 344.04C114.091 351.41 126.751 358.8 139.421 366.19Z"
        fill="#B74921" />
    <path d="M285.491 281.37L236.351 253.28L477.411 110.77L529.041 141.35L285.491 281.37Z"
        fill="#3691D0" />
    <path d="M478.201 168.5L529.041 141.35L284.491 0L232.711 30.22L478.201 168.5Z"
        fill="#3691D0" />
    <path d="M285.491 281.37L336.981 251.78L94.4909 110.89L42.7109 141.11L285.491 281.37Z"
        fill="#3691D0" />
    <path d="M90.5207 168.75L42.7007 141.12L284.491 0L333.821 28.33L90.5207 168.75Z"
        fill="#3691D0" />
    <path d="M500.011 157.978L288.798 279.207L313.872 322.893L525.086 201.664L500.011 157.978Z"
        fill="#1271B3" />
    <path d="M505.349 278.31L294.135 399.54L317.92 440.979L529.134 319.75L505.349 278.31Z"
        fill="#1271B3" />
    <path d="M479.881 412.92L529.201 389.22L528.661 435.72L479.881 461.24V412.92Z"
        fill="#1271B3" />
</svg>
